<svg xmlns="http://www.w3.org/2000/svg" width="360" height="360" viewBox="0 0 360 360" role="img" aria-label="Cô Lan">
  <rect width="360" height="360" fill="#f5efe6"/>
  <circle cx="180" cy="142" r="78" fill="#2d2624"/>
  <circle cx="180" cy="156" r="62" fill="#f2c6a8"/>
  <path d="M100 308c16-58 55-90 80-90s64 32 80 90" fill="#386b63"/>
  <path d="M124 134c12-50 44-72 72-64 32 9 50 34 50 70-34-16-76-19-122-6z" fill="#2d2624"/>
  <circle cx="156" cy="156" r="6" fill="#2d2624"/>
  <circle cx="204" cy="156" r="6" fill="#2d2624"/>
  <path d="M160 188c15 12 29 12 43 0" fill="none" stroke="#9b4b43" stroke-width="6" stroke-linecap="round"/>
  <circle cx="180" cy="268" r="34" fill="#fff" opacity=".92"/>
  <text x="180" y="279" text-anchor="middle" font-family="Arial, sans-serif" font-size="34" font-weight="700" fill="#386b63">란</text>
</svg>
